<?xml version="1.0" standalone="no"?>
<!DOCTYPE svg PUBLIC "-//W3C//DTD SVG 20010904//EN"
 "http://www.w3.org/TR/2001/REC-SVG-20010904/DTD/svg10.dtd">
<svg version="1.0" xmlns="http://www.w3.org/2000/svg"
 width="629.000000pt" height="757.000000pt" viewBox="0 0 629.000000 757.000000"
 preserveAspectRatio="xMidYMid meet">

<g transform="translate(0.000000,757.000000) scale(0.100000,-0.100000)"
fill="#000000" stroke="none">
<path d="M4765 7446 c-207 -54 -385 -235 -529 -536 l-53 -112 -122 -64 c-67
-35 -160 -84 -206 -109 l-85 -47 0 73 c0 88 -14 137 -52 183 -44 54 -117 84
-234 98 -163 19 -315 -12 -413 -83 -100 -72 -262 -401 -363 -736 -38 -128 -58
-172 -58 -128 0 8 -4 15 -10 15 -5 0 -16 14 -25 30 -11 22 -23 30 -41 30 -15
0 -39 11 -55 24 -36 31 -58 25 -104 -25 -19 -22 -41 -39 -48 -39 -25 0 -51 28
-52 56 -2 25 -8 30 -43 41 -23 6 -56 22 -73 34 -50 35 -146 60 -245 64 -76 3
-168 23 -588 129 -273 69 -516 126 -539 126 -52 0 -81 -19 -108 -72 -40 -79
-26 -175 30 -197 14 -6 197 -51 406 -101 209 -50 396 -95 416 -100 l36 -10
-24 -69 c-24 -66 -26 -69 -79 -90 -66 -28 -126 -93 -144 -156 -15 -54 -9 -200
12 -260 9 -29 19 -41 36 -43 15 -2 34 -20 51 -47 26 -41 28 -49 30 -189 l2
-145 -59 -43 -59 -43 -12 -95 c-17 -127 -8 -158 68 -259 l62 -82 9 -162 c25
-409 68 -762 141 -1170 29 -163 30 -169 14 -229 -8 -34 -27 -88 -42 -121 -22
-50 -33 -62 -75 -83 l-48 -24 0 -58 c0 -31 5 -73 10 -92 9 -32 8 -37 -15 -57
-15 -13 -35 -23 -47 -23 -31 0 -47 -29 -48 -88 0 -49 -4 -58 -60 -130 -44 -57
-62 -90 -69 -125 -5 -26 -10 -49 -12 -51 -2 -2 -78 -54 -169 -116 -480 -329
-1080 -784 -1080 -819 0 -13 244 -92 1133 -370 622 -195 1137 -356 1143 -358
6 -2 55 50 108 116 53 67 100 121 104 121 4 0 22 -30 41 -66 45 -88 89 -117
181 -122 154 -9 163 52 44 300 l-66 138 48 59 c27 33 50 59 51 57 2 -2 26 -75
53 -164 82 -264 126 -365 197 -443 30 -33 42 -39 74 -39 51 0 102 21 123 51
24 35 20 80 -29 322 -63 311 -113 619 -104 637 4 8 30 40 57 70 59 65 53 76
77 -130 36 -292 121 -746 164 -872 37 -108 74 -138 172 -138 91 0 145 41 160
123 4 24 -1 87 -12 160 -43 284 -69 699 -69 1098 0 276 -1 269 51 269 47 0 77
71 44 104 -14 14 13 44 262 297 615 623 1171 1115 1723 1526 170 126 431 305
517 354 24 13 43 26 43 29 0 3 -232 18 -515 33 l-515 27 -241 -115 c-268 -129
-704 -347 -966 -484 -95 -50 -173 -86 -173 -81 0 19 33 151 76 305 89 319 216
677 344 970 43 98 235 492 245 503 2 2 32 -20 67 -48 107 -87 232 -149 374
-185 86 -23 218 -27 253 -9 15 8 34 11 44 8 12 -4 24 1 33 15 16 23 50 28 56
9 8 -22 108 45 181 122 165 173 261 443 274 765 14 359 -88 688 -273 885 -68
71 -184 144 -184 115 0 -33 -17 -12 -29 35 -25 96 -113 205 -213 264 -107 63
-262 89 -363 62z m663 -392 c24 -16 29 -34 10 -34 -14 0 -48 30 -48 42 0 12
13 10 38 -8z m-8 -56 c0 -21 0 -21 -25 2 -27 26 -24 46 6 30 10 -6 19 -20 19
-32z m90 -35 c0 -7 -4 -13 -9 -13 -14 0 -41 42 -35 52 8 12 44 -21 44 -39z
m-30 -40 c0 -19 -18 -16 -30 6 -17 33 -12 46 10 26 11 -10 20 -24 20 -32z m84
-16 c6 -9 7 -19 3 -23 -9 -9 -37 15 -37 33 0 18 20 12 34 -10z m-42 -42 c6
-14 8 -28 4 -33 -9 -8 -36 26 -36 45 0 22 20 14 32 -12z m88 -24 c5 -11 10
-28 10 -38 -1 -16 -3 -15 -20 6 -21 25 -26 51 -10 51 5 0 14 -9 20 -19z m-42
-66 c6 -14 7 -27 2 -30 -11 -7 -41 35 -34 47 9 14 20 9 32 -17z m86 -21 c17
-44 -3 -61 -22 -19 -15 33 -15 35 2 35 8 0 17 -7 20 -16z m-44 -86 c0 -10 -5
-18 -10 -18 -14 0 -32 49 -24 62 9 14 34 -19 34 -44z m90 -24 c0 -26 -20 -24
-30 1 -13 34 -2 55 17 30 7 -11 13 -24 13 -31z m-69 -41 c6 -17 6 -30 0 -36
-12 -12 -35 38 -25 54 9 14 14 11 25 -18z m-1570 -85 l-42 -93 -80 -44 c-44
-25 -124 -73 -179 -107 -55 -34 -100 -57 -100 -51 1 7 20 61 43 121 l42 109
175 82 c96 45 177 80 179 79 2 -2 -15 -45 -38 -96z m1660 55 c6 -17 6 -30 0
-36 -12 -12 -35 38 -25 54 9 14 14 11 25 -18z m-61 -86 c0 -33 -25 -12 -28 24
-2 32 -1 33 13 15 8 -11 15 -28 15 -39z m88 -25 c-6 -27 -23 -16 -26 18 -2 33
-2 34 13 15 9 -11 14 -26 13 -33z m-78 -42 c0 -11 0 -23 1 -27 0 -4 -4 -9 -9
-11 -10 -3 -23 44 -14 53 11 11 22 4 22 -15z m90 -30 c0 -11 0 -23 1 -27 0 -4
-4 -9 -9 -11 -10 -3 -23 44 -14 53 11 11 22 4 22 -15z m-77 -67 c6 -31 0 -46
-14 -38 -12 8 -12 65 0 65 5 0 11 -12 14 -27z m90 -30 c6 -31 0 -46 -14 -38
-12 8 -12 65 0 65 5 0 11 -12 14 -27z m-1854 -113 l-44 -110 -97 -57 c-53 -32
-95 -59 -94 -60 2 -2 38 13 81 32 43 20 80 34 82 31 3 -3 -10 -42 -27 -88
-226 -581 -453 -1433 -551 -2068 -12 -80 -26 -149 -30 -153 -3 -5 -56 4 -116
19 -99 24 -109 29 -106 48 1 11 15 98 29 191 54 361 159 827 285 1269 56 195
247 781 284 869 15 36 26 44 178 117 89 43 163 77 166 75 2 -2 -16 -54 -40
-115z m1771 39 c0 -38 -24 -35 -28 4 -2 19 1 27 12 27 11 0 16 -10 16 -31z
m90 -30 c0 -20 -4 -29 -12 -27 -15 5 -22 33 -14 54 9 24 26 6 26 -27z m-92
-70 c-1 -13 -7 -23 -13 -22 -13 3 -18 30 -11 50 10 24 29 1 24 -28z m90 -21
c-3 -34 -20 -42 -26 -13 -5 22 5 45 18 45 7 0 10 -14 8 -32z m-94 -46 c7 -12
-5 -52 -15 -52 -5 0 -9 14 -9 30 0 28 13 40 24 22z m88 -58 c-2 -13 -8 -24
-13 -24 -10 0 -12 53 -2 63 11 12 20 -12 15 -39z m-103 -70 c-12 -28 -13 -28
-17 -6 -5 32 6 58 19 45 6 -6 6 -19 -2 -39z m93 -10 c-2 -10 -5 -26 -8 -34 -8
-23 -22 7 -16 36 5 29 29 27 24 -2z m-104 -71 c-4 -34 -28 -43 -28 -10 0 25 7
37 22 37 5 0 8 -12 6 -27z m86 -37 c-3 -14 -10 -26 -15 -26 -10 0 -12 53 -2
63 13 13 24 -10 17 -37z m-104 -40 c0 -22 -11 -46 -21 -46 -10 0 -12 43 -2 53
11 12 23 8 23 -7z m80 -51 c-7 -19 -14 -25 -21 -18 -6 6 -6 19 1 38 7 19 14
25 21 18 6 -6 6 -19 -1 -38z m-3318 -47 c10 -4 10 -10 0 -32 -9 -20 -9 -31 0
-45 9 -15 7 -24 -10 -46 -16 -20 -22 -41 -22 -80 0 -45 -4 -55 -25 -69 -13 -9
-27 -16 -30 -16 -9 0 3 101 27 217 18 84 23 99 34 88 8 -7 19 -15 26 -17z
m3208 5 c0 -23 -17 -49 -26 -41 -9 10 4 58 16 58 6 0 10 -8 10 -17z m90 -26
c0 -18 -27 -53 -35 -46 -10 11 6 59 21 59 8 0 14 -6 14 -13z m-120 -60 c0 -19
-27 -53 -36 -45 -9 10 12 58 26 58 5 0 10 -6 10 -13z m69 -63 c-22 -27 -34 2
-13 33 19 28 19 28 22 5 2 -13 -2 -30 -9 -38z m-124 -50 c-13 -20 -19 -23 -25
-14 -11 18 19 65 33 51 7 -7 4 -19 -8 -37z m95 3 c0 -19 -27 -53 -36 -45 -9
10 12 58 26 58 5 0 10 -6 10 -13z m-130 -54 c-1 -14 -27 -43 -39 -43 -14 0
-14 6 -1 31 10 18 40 27 40 12z m80 -25 c-1 -19 -29 -53 -37 -45 -8 9 14 57
27 57 5 0 10 -6 10 -12z m-140 -45 c0 -10 -32 -43 -42 -43 -12 0 -10 24 4 38
13 13 38 16 38 5z m78 -39 c-4 -20 -34 -41 -44 -31 -8 8 24 47 38 47 5 0 8 -7
6 -16z m-162 -50 c-34 -25 -52 -17 -26 11 17 18 27 22 34 14 8 -7 5 -15 -8
-25z m104 -1 c0 -12 -33 -43 -47 -43 -17 0 -17 10 4 32 16 18 43 25 43 11z
m-170 -33 c0 -14 -48 -35 -58 -26 -8 9 26 36 45 36 7 0 13 -5 13 -10z m-85
-30 c9 -14 -45 -34 -58 -21 -7 7 -2 14 14 20 32 13 37 13 44 1z m-95 -20 c0
-5 -9 -10 -20 -10 -11 0 -20 5 -20 10 0 6 9 10 20 10 11 0 20 -4 20 -10z
m-2628 -410 l-8 -75 -17 39 c-21 47 -21 73 -3 117 32 76 42 46 28 -81z m668
-1545 c0 -5 -44 -33 -122 -78 l-48 -28 0 50 c0 43 3 50 23 54 32 6 147 8 147
2z m-696 -281 c4 -69 6 -127 4 -128 -2 -2 -39 -24 -82 -50 -55 -33 -81 -44
-86 -36 -10 16 -23 197 -15 209 8 15 155 131 164 131 5 0 12 -57 15 -126z"/>
<path d="M5382 7125 c12 -12 141 -53 153 -49 18 7 57 -14 49 -27 -3 -6 -12 -8
-20 -5 -33 13 -20 -19 35 -85 110 -131 199 -339 236 -554 22 -121 25 -374 6
-490 -50 -313 -186 -578 -358 -697 -31 -21 -42 -33 -34 -41 7 -7 15 -7 23 0 7
5 36 18 63 28 28 10 63 31 79 46 15 16 37 29 48 29 11 0 16 5 13 10 -11 18 24
62 44 55 12 -3 21 0 25 10 6 18 26 20 26 3 0 -18 -31 -47 -45 -42 -17 7 -24
-6 -16 -29 19 -52 288 194 376 343 65 112 121 277 135 405 56 481 -250 933
-724 1069 -83 25 -125 32 -114 21z m269 -95 c10 -6 19 -17 19 -25 0 -19 -5
-19 -35 1 -41 27 -27 47 16 24z m-48 -14 c17 -14 23 -36 9 -36 -9 0 -52 38
-52 45 0 10 25 4 43 -9z m131 -58 c5 -9 7 -20 3 -24 -8 -8 -47 24 -47 38 0 15
32 5 44 -14z m-62 -5 c18 -16 25 -43 11 -43 -12 0 -43 33 -43 47 0 17 10 17
32 -4z m120 -68 c16 -35 1 -45 -22 -15 -24 30 -25 40 -5 40 9 0 21 -11 27 -25z
m-58 -7 c19 -27 20 -38 5 -38 -14 0 -38 30 -39 48 0 19 17 14 34 -10z m108
-73 c6 -14 8 -28 4 -33 -9 -8 -36 26 -36 45 0 22 20 14 32 -12z m-42 -36 c0
-20 -19 -17 -34 6 -23 34 -9 56 16 26 10 -13 18 -27 18 -32z m80 -38 c5 -11
10 -24 10 -30 0 -12 -30 -15 -30 -3 0 4 -3 17 -6 30 -8 27 11 30 26 3z m-51
-23 c11 -28 -5 -50 -19 -28 -13 20 -13 50 0 50 6 0 15 -10 19 -22z m85 -64 c9
-24 7 -44 -4 -44 -12 0 -30 41 -23 53 7 12 21 8 27 -9z m-50 -30 c4 -15 4 -29
1 -33 -8 -7 -35 28 -35 46 0 24 28 13 34 -13z m86 -90 c0 -26 -20 -24 -30 1
-13 34 -2 55 17 30 7 -11 13 -24 13 -31z m-62 -7 c4 -29 -12 -37 -22 -11 -10
26 -7 46 7 42 6 -3 13 -17 15 -31z m74 -76 c2 -13 -3 -26 -9 -28 -9 -3 -13 7
-13 33 0 41 17 37 22 -5z m-52 -22 c0 -16 -4 -29 -10 -29 -12 0 -24 45 -15 60
11 18 25 1 25 -31z m65 -72 c0 -39 -19 -38 -23 2 -3 24 0 32 10 29 7 -3 13
-17 13 -31z m-55 -7 c0 -11 0 -23 1 -27 0 -4 -4 -9 -10 -11 -6 -2 -11 10 -11
27 0 17 5 31 10 31 6 0 10 -9 10 -20z m68 -91 c-5 -35 -28 -36 -28 -1 0 16 3
32 7 35 11 12 25 -9 21 -34z m-58 -20 c0 -16 -4 -29 -9 -29 -11 0 -24 48 -16
61 11 17 25 -1 25 -32z m58 -71 c-3 -34 -20 -42 -26 -13 -5 22 5 45 18 45 7 0
10 -14 8 -32z m-58 -18 c0 -16 -4 -30 -10 -30 -5 0 -10 14 -10 30 0 17 5 30
10 30 6 0 10 -13 10 -30z m60 -80 c0 -20 -5 -30 -15 -30 -15 0 -21 40 -8 53
14 15 23 6 23 -23z m-60 -15 c0 -33 -12 -46 -25 -25 -8 12 5 60 16 60 5 0 9
-16 9 -35z m50 -74 c0 -29 -14 -49 -23 -34 -8 12 4 63 14 63 5 0 9 -13 9 -29z
m-56 1 c7 -12 -5 -52 -15 -52 -5 0 -9 14 -9 30 0 28 13 40 24 22z m46 -101 c0
-31 -14 -49 -25 -32 -8 13 5 61 16 61 5 0 9 -13 9 -29z m-57 -23 c-3 -16 -9
-28 -14 -28 -15 0 -19 19 -9 46 13 34 31 20 23 -18z m37 -83 c-7 -19 -14 -25
-21 -18 -6 6 -6 19 1 38 7 19 14 25 21 18 6 -6 6 -19 -1 -38z m-50 11 c0 -22
-11 -46 -21 -46 -10 0 -12 43 -2 53 11 12 23 8 23 -7z m31 -100 c-5 -11 -13
-22 -19 -24 -15 -5 -15 23 -1 50 14 26 31 5 20 -26z m-61 -21 c-7 -19 -14 -25
-21 -18 -6 6 -6 19 1 38 7 19 14 25 21 18 6 -6 6 -19 -1 -38z m35 -57 c-15
-48 -41 -52 -29 -4 3 14 13 26 21 26 10 0 12 -6 8 -22z m-55 -6 c0 -25 -25
-58 -34 -44 -8 13 10 62 24 62 5 0 10 -8 10 -18z m20 -75 c0 -19 -27 -53 -36
-45 -9 10 12 58 26 58 5 0 10 -6 10 -13z m-57 -27 c-3 -10 -11 -25 -19 -31
-11 -9 -14 -7 -14 13 0 25 18 50 31 43 4 -3 5 -14 2 -25z m17 -52 c-1 -18 -25
-48 -39 -48 -15 0 -14 11 5 38 17 24 34 29 34 10z m-60 -21 c0 -19 -27 -53
-36 -45 -9 10 12 58 26 58 5 0 10 -6 10 -13z"/>
</g>
</svg>
